<?xml version="1.0" standalone="no"?>
<!DOCTYPE svg PUBLIC "-//W3C//DTD SVG 20010904//EN"
 "http://www.w3.org/TR/2001/REC-SVG-20010904/DTD/svg10.dtd">
<svg version="1.0" xmlns="http://www.w3.org/2000/svg"
 width="768.000000pt" height="203.000000pt" viewBox="0 0 768.000000 203.000000"
 preserveAspectRatio="xMidYMid meet">

<g transform="translate(0.000000,203.000000) scale(0.100000,-0.100000)"
fill="#000000" stroke="none">
<path d="M7430 1704 c-8 -2 -109 -8 -225 -14 -363 -19 -618 -32 -665 -35 -25
-2 -76 -4 -115 -4 -133 -1 -490 -22 -524 -31 -20 -6 -41 -6 -51 0 -12 6 -29 3
-55 -11 -36 -20 -41 -20 -71 -6 -27 13 -52 14 -170 6 -76 -5 -144 -15 -152
-21 -8 -7 -16 -8 -20 -2 -7 9 -158 6 -463 -11 -128 -7 -138 -9 -147 -30 -10
-22 -52 -41 -52 -24 0 5 7 9 16 9 9 0 14 6 11 13 -3 9 -33 12 -108 11 -199 -1
-494 -15 -551 -25 -31 -5 -68 -7 -82 -3 -17 4 -37 -1 -61 -14 -30 -18 -38 -19
-60 -8 -28 15 -48 14 -335 -3 -102 -6 -246 -13 -320 -16 -74 -3 -216 -9 -315
-15 -99 -5 -277 -14 -395 -20 -150 -8 -222 -16 -237 -26 -16 -10 -23 -10 -25
-2 -4 10 -77 8 -314 -5 -170 -10 -331 -20 -359 -23 -27 -2 -82 -4 -121 -3 -39
0 -135 -4 -215 -10 -79 -6 -279 -17 -444 -26 -165 -8 -365 -20 -445 -27 -80
-6 -165 -10 -190 -9 -25 1 -72 -1 -106 -4 -58 -6 -61 -7 -56 -31 2 -13 11 -24
21 -24 14 -1 14 -2 -1 -11 -10 -5 -18 -17 -18 -25 0 -12 22 -13 147 -8 82 3
193 10 248 14 55 5 174 11 265 14 414 13 803 40 808 56 2 5 8 10 13 10 6 0 7
-5 4 -10 -8 -13 23 -13 275 1 113 6 210 16 217 21 6 5 14 5 16 1 3 -5 50 -6
104 -2 54 4 172 10 263 13 91 4 230 11 310 16 80 6 262 14 405 20 366 13 417
18 433 41 15 22 42 25 42 5 0 -18 19 -22 82 -17 39 2 51 7 58 25 6 15 9 16 9
5 1 -20 29 -26 99 -21 48 4 52 6 46 25 -5 16 -3 19 10 14 22 -9 20 2 -6 30
-12 13 -16 23 -10 23 6 0 15 -6 19 -14 4 -8 19 -16 33 -18 14 -1 29 -13 35
-25 7 -17 18 -23 42 -23 17 0 35 5 38 10 3 6 17 7 31 4 14 -4 24 -2 24 5 0 6
7 11 16 11 8 0 12 -5 9 -10 -7 -12 78 -13 242 -3 l112 6 4 31 4 31 1 -31 c2
-31 2 -31 55 -28 28 2 151 8 272 14 121 6 288 15 370 20 175 11 440 25 473 25
12 -1 22 2 22 5 0 3 18 4 40 2 39 -4 40 -3 40 27 0 39 30 43 50 6 14 -27 68
-44 80 -25 4 7 17 9 33 4 20 -4 27 -2 27 9 0 8 9 17 21 20 16 4 18 3 8 -9 -10
-12 13 -14 158 -14 93 0 173 3 177 7 4 4 36 7 72 8 43 0 68 5 73 14 7 11 9 11
13 0 3 -10 50 -10 244 0 360 18 527 31 541 43 9 7 13 7 13 -1 0 -7 22 -11 59
-11 64 0 324 20 330 26 2 2 0 24 -3 49 l-7 45 -87 -1 c-48 -1 -94 -3 -102 -5z
m-383 -56 c-3 -8 -6 -5 -6 6 -1 11 2 17 5 13 3 -3 4 -12 1 -19z m280 6 c-3 -3
-12 -4 -19 -1 -8 3 -5 6 6 6 11 1 17 -2 13 -5z m-1317 -74 c0 -5 -4 -10 -9
-10 -6 0 -13 5 -16 10 -3 6 1 10 9 10 9 0 16 -4 16 -10z m-530 -40 c0 -5 -2
-10 -4 -10 -3 0 -8 5 -11 10 -3 6 -1 10 4 10 6 0 11 -4 11 -10z m-780 -10 c0
-5 -7 -10 -15 -10 -8 0 -15 5 -15 10 0 6 7 10 15 10 8 0 15 -4 15 -10z m150
-15 c0 -8 -4 -15 -10 -15 -5 0 -7 7 -4 15 4 8 8 15 10 15 2 0 4 -7 4 -15z
m-690 -29 c0 -11 -19 -15 -25 -6 -3 5 1 10 9 10 9 0 16 -2 16 -4z m390 -6 c0
-5 -2 -10 -4 -10 -3 0 -8 5 -11 10 -3 6 -1 10 4 10 6 0 11 -4 11 -10z m-1105
-10 c-3 -5 -15 -10 -26 -10 -10 0 -19 5 -19 10 0 6 12 10 26 10 14 0 23 -4 19
-10z m220 -20 c3 -5 2 -10 -4 -10 -5 0 -13 5 -16 10 -3 6 -2 10 4 10 5 0 13
-4 16 -10z m-23 -32 c-9 -9 -15 -9 -24 0 -9 9 -7 12 12 12 19 0 21 -3 12 -12z
m-2577 -108 c3 -5 -1 -10 -10 -10 -9 0 -13 5 -10 10 3 6 8 10 10 10 2 0 7 -4
10 -10z m-835 -14 c0 -15 -24 -28 -34 -19 -7 7 13 33 25 33 5 0 9 -6 9 -14z
m196 -13 c11 -12 13 -18 5 -21 -13 -4 -41 16 -41 29 0 14 17 10 36 -8z"/>
<path d="M7146 1524 c-13 -22 -15 -23 -11 -7 6 21 4 22 -27 16 -142 -27 -234
-200 -208 -392 15 -109 58 -194 119 -232 25 -15 52 -33 59 -39 7 -6 38 -15 70
-20 121 -20 217 -4 217 36 0 16 7 19 48 19 40 0 53 5 69 25 35 42 69 127 79
196 13 93 -13 244 -42 244 -6 0 -9 6 -6 14 11 28 -49 93 -117 126 -52 26 -81
33 -149 37 l-85 6 -16 -29z m74 -14 c0 -5 -7 -10 -15 -10 -8 0 -15 5 -15 10 0
6 7 10 15 10 8 0 15 -4 15 -10z m61 -80 c23 -6 53 -29 81 -59 43 -47 46 -53
54 -128 12 -113 11 -135 -8 -162 -10 -13 -18 -29 -18 -35 -1 -17 -45 -63 -69
-71 -11 -3 -21 -11 -21 -16 0 -5 -18 -9 -39 -9 -48 0 -182 48 -179 64 1 6 -5
25 -14 41 -40 74 -41 212 -3 285 41 78 128 114 216 90z m172 -67 c-7 -2 -19
-2 -25 0 -7 3 -2 5 12 5 14 0 19 -2 13 -5z m-408 -303 c-3 -5 -14 -10 -23 -10
-15 0 -15 2 -2 10 20 13 33 13 25 0z"/>
<path d="M5750 1530 c0 -5 5 -10 11 -10 5 0 7 5 4 10 -3 6 -8 10 -11 10 -2 0
-4 -4 -4 -10z"/>
<path d="M6516 1493 c-3 -8 -12 -13 -19 -10 -6 2 -20 0 -30 -5 -13 -7 -24 -5
-36 6 -14 12 -31 14 -87 9 -80 -7 -94 -15 -94 -53 0 -45 23 -55 121 -55 48 0
89 -2 92 -5 7 -7 30 -316 28 -374 0 -27 4 -55 9 -62 8 -8 8 -14 0 -19 -20 -12
-10 -56 19 -86 32 -32 51 -35 84 -17 l22 12 -25 7 c-23 6 -22 7 9 8 33 1 34 1
27 39 -3 20 -6 42 -6 49 0 7 -7 10 -17 7 -16 -5 -16 -4 1 10 18 14 19 25 12
148 -3 73 -9 167 -13 209 l-6 77 34 7 c19 4 38 14 44 22 11 14 45 8 45 -8 0
-17 60 -9 80 11 26 26 26 66 0 80 -12 6 -75 10 -154 9 -109 -1 -136 -4 -140
-16z m89 -22 c-6 -21 -35 -30 -35 -12 0 12 31 43 37 37 3 -2 2 -14 -2 -25z
m165 -15 c0 -3 -4 -8 -10 -11 -5 -3 -10 -1 -10 4 0 6 5 11 10 11 6 0 10 -2 10
-4z m-350 -46 c-8 -5 -17 -7 -19 -4 -3 3 1 9 9 14 8 5 17 7 19 4 3 -3 -1 -9
-9 -14z m135 -100 c3 -5 -1 -10 -9 -10 -9 0 -16 5 -16 10 0 6 4 10 9 10 6 0
13 -4 16 -10z m25 -90 c12 -8 11 -10 -7 -10 -12 0 -25 5 -28 10 -8 13 15 13
35 0z m-30 -170 c0 -5 -4 -10 -10 -10 -5 0 -10 5 -10 10 0 6 5 10 10 10 6 0
10 -4 10 -10z"/>
<path d="M6017 1466 c-8 -8 -19 -11 -26 -6 -7 4 -70 5 -139 3 -130 -5 -172
-17 -172 -48 0 -9 10 -15 23 -16 21 -1 21 -1 -3 -8 -18 -5 -21 -9 -12 -15 11
-6 10 -10 -2 -19 -12 -10 -13 -27 -6 -97 5 -47 9 -98 9 -113 1 -24 4 -27 21
-22 15 5 18 3 14 -9 -3 -9 -12 -16 -20 -16 -10 0 -13 -12 -12 -40 1 -22 6 -40
12 -40 8 0 8 -3 0 -8 -16 -11 -1 -200 19 -219 18 -18 53 -19 301 -6 160 8 180
11 192 28 8 11 14 31 12 45 -5 38 -41 51 -128 45 -41 -3 -118 -7 -170 -8 l-95
-2 -3 68 c-3 60 -5 68 -20 61 -9 -4 -33 -9 -52 -10 l-35 -4 33 10 c18 6 32 17
32 26 0 10 6 13 19 9 13 -4 20 0 24 15 4 16 13 20 45 20 97 0 192 13 192 26 0
8 5 14 10 14 6 0 10 -7 10 -15 0 -17 32 -20 61 -5 12 7 19 21 19 41 0 25 -6
33 -35 45 -42 17 -75 18 -140 1 -36 -10 -45 -15 -32 -20 10 -4 15 -12 12 -18
-5 -7 -12 -4 -21 9 -17 25 -118 31 -131 7 -5 -9 -8 25 -7 83 l1 97 171 10
c186 11 205 17 183 59 -8 13 -11 29 -7 34 9 14 -18 22 -79 22 -33 0 -59 -5
-68 -14z m-270 -22 c-3 -3 -12 -4 -19 -1 -8 3 -5 6 6 6 11 1 17 -2 13 -5z
m173 -34 c0 -5 -4 -10 -10 -10 -5 0 -10 5 -10 10 0 6 5 10 10 10 6 0 10 -4 10
-10z m-180 -60 c0 -5 -2 -10 -4 -10 -3 0 -8 5 -11 10 -3 6 -1 10 4 10 6 0 11
-4 11 -10z m40 -180 c0 -13 -7 -20 -20 -20 -18 0 -19 2 -8 20 7 11 16 20 20
20 5 0 8 -9 8 -20z m54 -52 c6 -5 1 -8 -11 -8 -13 0 -23 -4 -23 -10 0 -5 -9
-10 -20 -10 -11 0 -20 6 -20 14 0 9 7 12 19 9 13 -3 20 2 25 19 6 17 9 19 13
8 3 -8 11 -18 17 -22z m176 2 c0 -5 -4 -10 -10 -10 -5 0 -10 5 -10 10 0 6 5
10 10 10 6 0 10 -4 10 -10z m-249 -203 c-16 -16 -26 0 -10 19 9 11 15 12 17 4
2 -6 -1 -17 -7 -23z m89 -71 c0 -3 -4 -8 -10 -11 -5 -3 -10 -1 -10 4 0 6 5 11
10 11 6 0 10 -2 10 -4z m265 -26 c3 -5 1 -10 -4 -10 -6 0 -11 5 -11 10 0 6 2
10 4 10 3 0 8 -4 11 -10z"/>
<path d="M5136 1440 c-59 -11 -76 -39 -74 -116 2 -64 11 -95 24 -81 4 3 1 14
-7 23 -12 14 -11 16 6 13 13 -3 20 -13 22 -32 1 -21 -2 -27 -19 -27 -20 0 -21
-3 -14 -87 3 -49 7 -124 8 -167 3 -68 6 -80 23 -87 17 -6 17 -8 3 -8 -27 -1
-25 -84 2 -111 24 -24 30 -25 75 -3 37 17 47 46 19 57 -17 6 -11 45 10 58 6 4
11 40 11 90 l0 83 35 3 c43 4 142 -44 146 -70 2 -19 55 -88 67 -88 4 0 7 -8 7
-19 0 -10 13 -34 30 -52 16 -19 30 -37 30 -41 0 -11 30 -10 30 0 0 4 16 8 35
8 49 0 60 14 44 58 -7 20 -19 36 -26 36 -7 0 -13 11 -13 24 0 28 -55 102 -104
140 -40 30 -46 46 -16 46 10 0 24 9 30 20 6 11 15 18 21 14 14 -9 38 14 61 60
28 56 22 141 -15 189 -47 62 -82 72 -257 74 -85 1 -173 -2 -194 -7z m331 -56
c-3 -3 -12 -4 -19 -1 -8 3 -5 6 6 6 11 1 17 -2 13 -5z m63 -34 c0 -23 -22 -26
-39 -6 -10 11 -8 15 6 19 31 8 33 7 33 -13z m-133 -15 c67 -9 88 -36 78 -102
-5 -33 -12 -47 -26 -50 -10 -3 -19 -9 -19 -14 0 -5 -9 -9 -19 -9 -15 0 -18 -5
-14 -22 4 -20 3 -21 -7 -5 -9 14 -26 17 -95 17 l-83 0 -7 30 c-4 17 -5 57 -3
88 3 55 4 57 38 69 34 11 47 11 157 -2z m-253 -40 c-4 -8 -8 -15 -10 -15 -2 0
-4 7 -4 15 0 8 4 15 10 15 5 0 7 -7 4 -15z m6 -85 c-20 -13 -33 -13 -25 0 3 6
14 10 23 10 15 0 15 -2 2 -10z m230 -110 c0 -11 -4 -20 -10 -20 -5 0 -10 9
-10 20 0 11 5 20 10 20 6 0 10 -9 10 -20z m68 2 c4 -14 -34 -16 -42 -3 -6 10
13 21 28 17 6 -1 12 -8 14 -14z"/>
<path d="M3905 1430 c3 -5 8 -10 11 -10 2 0 4 5 4 10 0 6 -5 10 -11 10 -5 0
-7 -4 -4 -10z"/>
<path d="M4647 1406 c-59 -16 -154 -89 -179 -138 -11 -20 -27 -73 -36 -117
-36 -174 32 -344 165 -411 39 -20 62 -25 128 -24 97 1 164 16 185 41 9 11 22
22 30 26 9 3 5 6 -10 6 -24 1 -23 2 10 23 19 12 41 21 48 19 18 -3 42 61 42
113 0 36 -4 48 -21 57 -24 12 -34 3 -45 -38 -3 -12 -17 -24 -30 -27 -14 -4
-34 -22 -45 -41 -11 -19 -29 -37 -40 -40 -10 -4 -19 -11 -19 -16 0 -5 -11 -9
-24 -9 -14 0 -37 -5 -52 -10 -18 -7 -30 -7 -39 0 -6 5 -15 7 -18 4 -4 -4 -23
6 -44 22 -21 16 -42 29 -48 29 -5 0 -12 11 -13 25 -2 14 -8 30 -13 36 -5 6
-12 33 -14 59 -3 27 -10 54 -16 61 -7 8 -7 14 1 19 5 3 10 18 10 33 1 56 37
135 74 162 19 14 36 31 36 39 0 11 3 11 15 1 13 -10 15 -9 15 11 0 18 3 20 9
10 5 -8 20 -15 34 -17 37 -4 127 -47 127 -61 0 -7 8 -21 18 -31 10 -10 21 -26
25 -35 9 -25 72 -22 98 4 11 11 19 23 17 27 -2 4 -16 33 -31 64 -31 66 -42 75
-64 56 -14 -11 -15 -10 -9 10 7 20 2 25 -41 44 -59 26 -169 33 -236 14z m318
-137 c11 -17 -1 -21 -15 -4 -8 9 -8 15 -2 15 6 0 14 -5 17 -11z m-435 -19 c0
-5 -4 -10 -9 -10 -6 0 -13 5 -16 10 -3 6 1 10 9 10 9 0 16 -4 16 -10z m380 0
c0 -5 -2 -10 -4 -10 -3 0 -8 5 -11 10 -3 6 -1 10 4 10 6 0 11 -4 11 -10z m90
-20 c0 -5 -10 -10 -22 -10 -19 0 -20 2 -8 10 19 13 30 13 30 0z m-494 -92 c-6
-10 -19 -18 -28 -18 -21 0 -22 4 -8 31 8 15 7 19 -5 19 -8 0 -15 4 -15 8 0 20
15 20 40 -1 22 -18 25 -25 16 -39z m-3 -85 c-7 -2 -19 -2 -25 0 -7 3 -2 5 12
5 14 0 19 -2 13 -5z m17 -108 c8 -9 8 -15 2 -15 -6 0 -16 -2 -24 -5 -7 -3 -19
4 -26 15 -11 18 -10 20 12 20 13 0 29 -7 36 -15z m-6 -60 c3 -9 0 -15 -9 -15
-8 0 -15 7 -15 15 0 8 4 15 9 15 5 0 11 -7 15 -15z m441 -15 c8 -12 -40 -24
-57 -14 -9 6 -6 10 12 15 36 10 38 10 45 -1z m-331 -45 c3 -8 1 -15 -4 -15 -6
0 -10 7 -10 15 0 8 2 15 4 15 2 0 6 -7 10 -15z m266 -4 c0 -10 -42 -23 -49
-15 -7 6 20 24 37 24 6 0 12 -4 12 -9z m-120 -56 c0 -8 -4 -15 -10 -15 -5 0
-10 7 -10 15 0 8 5 15 10 15 6 0 10 -7 10 -15z m70 11 c0 -3 -4 -8 -10 -11 -5
-3 -10 -1 -10 4 0 6 5 11 10 11 6 0 10 -2 10 -4z"/>
<path d="M4210 1383 c-14 -2 -32 -6 -40 -10 -8 -3 -76 -6 -150 -7 -112 -1
-141 -4 -163 -19 -29 -19 -35 -37 -13 -37 8 0 18 -5 22 -11 4 -8 0 -9 -15 -4
-12 4 -21 2 -21 -4 0 -6 5 -11 11 -11 8 0 7 -5 -1 -15 -10 -12 -11 -44 -7
-126 3 -61 8 -113 11 -116 3 -3 12 0 21 7 9 8 15 8 15 2 0 -6 -9 -17 -20 -25
-28 -19 -17 -87 14 -87 38 0 66 12 66 27 0 10 7 14 19 10 13 -3 21 1 24 13 3
13 20 18 82 23 43 4 95 7 115 7 29 0 39 5 43 20 3 11 10 20 15 20 6 0 8 -9 5
-20 -6 -23 10 -26 50 -11 39 15 45 50 13 78 -21 18 -39 23 -79 22 -49 0 -152
-26 -114 -28 9 -1 17 -5 17 -11 0 -14 -11 -12 -29 4 -9 7 -39 16 -67 20 -46 6
-52 4 -61 -16 -7 -17 -9 4 -6 77 2 55 6 102 9 105 3 3 80 7 171 10 149 5 166
7 179 25 12 17 12 20 -1 28 -18 10 -20 34 -2 40 12 4 -59 28 -78 26 -5 -1 -21
-4 -35 -6z m-307 -40 c-7 -2 -19 -2 -25 0 -7 3 -2 5 12 5 14 0 19 -2 13 -5z
m167 -33 c0 -5 -4 -10 -10 -10 -5 0 -10 5 -10 10 0 6 5 10 10 10 6 0 10 -4 10
-10z m-140 -240 c0 -11 -7 -20 -15 -20 -17 0 -18 2 -9 24 9 23 24 20 24 -4z
m44 -31 c-3 -6 0 -15 7 -20 11 -7 11 -9 -3 -9 -9 0 -20 5 -23 10 -7 12 2 30
16 30 6 0 7 -5 3 -11z m186 -9 c0 -5 -5 -10 -11 -10 -5 0 -7 5 -4 10 3 6 8 10
11 10 2 0 4 -4 4 -10z m-222 -31 c-19 -13 -28 -11 -28 5 0 9 7 12 21 9 16 -4
17 -8 7 -14z"/>
<path d="M3397 1336 c-44 -16 -102 -59 -123 -91 -20 -30 -28 -85 -20 -130 9
-48 70 -110 121 -124 22 -5 76 -20 120 -31 151 -40 190 -75 161 -144 -19 -45
-61 -66 -132 -66 -51 0 -59 3 -87 34 -18 18 -44 52 -59 75 -22 32 -34 41 -56
41 -29 0 -58 -23 -63 -50 -4 -20 20 -89 42 -121 9 -14 41 -38 71 -54 47 -26
62 -29 138 -29 47 1 98 6 113 13 25 10 28 15 22 41 -6 29 -6 30 32 30 25 0 33
-3 24 -9 -7 -5 -12 -14 -9 -22 3 -8 21 4 51 33 43 41 47 49 48 94 3 121 -13
169 -56 180 -14 3 -25 10 -25 14 0 17 -205 78 -219 65 -2 -3 2 -11 9 -20 10
-13 9 -15 -9 -15 -14 0 -21 6 -21 20 0 23 -32 42 -68 40 -43 -3 -46 -1 -28 19
11 12 14 21 7 26 -7 4 -2 23 14 53 14 26 25 55 25 64 0 10 5 18 10 18 6 0 10
-7 10 -15 0 -16 2 -16 60 -20 40 -3 110 -30 110 -42 0 -5 20 -7 45 -6 40 2 45
0 45 -18 0 -17 -3 -19 -14 -10 -12 10 -16 8 -21 -10 -7 -22 7 -39 33 -39 21 0
52 39 52 67 0 35 -44 97 -87 124 -44 27 -207 37 -266 15z m173 -23 c-8 -3 -21
-10 -28 -16 -9 -7 -11 -6 -6 7 3 9 16 16 28 15 14 0 16 -2 6 -6z m-195 -23 c3
-5 2 -10 -4 -10 -5 0 -13 5 -16 10 -3 6 -2 10 4 10 5 0 13 -4 16 -10z m315
-19 c0 -30 -81 -37 -106 -10 -17 19 -16 19 44 19 34 0 62 -4 62 -9z m-250
-200 c0 -5 -7 -12 -16 -15 -26 -10 -74 -7 -74 5 0 7 11 8 30 4 19 -4 30 -3 30
4 0 6 7 11 15 11 8 0 15 -4 15 -9z m130 -21 c0 -5 -7 -10 -16 -10 -8 0 -12 5
-9 10 3 6 10 10 16 10 5 0 9 -4 9 -10z m-30 -24 c0 -11 -19 -15 -25 -6 -3 5 1
10 9 10 9 0 16 -2 16 -4z m125 -6 c3 -5 -3 -10 -15 -10 -12 0 -18 5 -15 10 3
6 10 10 15 10 5 0 12 -4 15 -10z m-155 -30 c0 -5 -9 -10 -20 -10 -11 0 -20 5
-20 10 0 6 9 10 20 10 11 0 20 -4 20 -10z"/>
<path d="M2809 1297 c-40 -26 -69 -95 -47 -109 9 -5 9 -8 2 -8 -15 0 -14 1
-84 -205 -32 -93 -68 -196 -79 -227 -26 -72 -26 -103 -1 -128 46 -46 110 -12
125 67 15 80 26 89 111 96 42 4 103 7 135 7 l58 0 26 -57 c32 -71 61 -103 92
-103 44 0 63 18 63 57 0 40 -19 103 -32 103 -4 0 -8 7 -8 15 0 9 -12 39 -26
68 -15 29 -60 129 -100 222 -81 187 -109 225 -168 225 -18 0 -48 -10 -67 -23z
m81 -171 c5 -13 14 -27 19 -31 6 -3 11 -17 11 -29 0 -13 14 -54 31 -91 39 -82
36 -85 -80 -85 -75 0 -83 2 -78 18 3 9 13 49 22 87 10 39 21 79 26 90 4 11 11
30 14 43 8 29 23 28 35 -2z m-60 -266 c0 -5 -5 -10 -11 -10 -5 0 -7 5 -4 10 3
6 8 10 11 10 2 0 4 -4 4 -10z"/>
<path d="M2031 1279 c-30 -5 -60 -14 -67 -20 -20 -16 -36 -76 -28 -101 4 -13
6 -38 5 -55 -1 -20 2 -33 9 -33 6 0 10 8 8 18 -1 9 2 18 7 20 6 1 10 -6 10
-15 0 -10 5 -21 10 -25 6 -4 -3 -8 -18 -8 l-28 0 6 -57 c6 -52 8 -91 14 -240
1 -31 5 -43 16 -43 8 0 15 -4 15 -10 0 -5 -7 -10 -16 -10 -14 0 -15 -7 -10
-37 3 -21 6 -44 6 -50 0 -7 11 -20 24 -28 23 -15 27 -15 65 9 47 30 49 37 19
60 -16 12 -19 18 -10 22 6 3 12 12 12 20 0 8 5 14 11 14 8 0 10 22 5 76 -8 85
0 104 43 104 28 0 159 -62 142 -68 -14 -5 50 -91 68 -92 8 0 11 -6 7 -16 -4
-10 9 -34 35 -65 33 -40 44 -47 55 -38 8 7 17 9 20 6 11 -11 64 15 64 32 0 25
-23 71 -37 71 -6 0 -9 8 -6 18 5 22 -60 109 -106 142 -31 22 -43 54 -17 44 9
-3 22 5 32 21 11 17 20 22 24 15 11 -17 58 44 70 92 23 83 -12 165 -90 207
-40 22 -57 25 -180 27 -74 2 -159 -1 -189 -7z m374 -90 c4 -6 5 -13 2 -16 -8
-7 -47 7 -47 18 0 13 37 11 45 -2z m-66 -46 c28 -29 18 -110 -15 -125 -13 -6
-24 -15 -24 -21 0 -5 -7 -6 -16 -3 -12 4 -15 2 -10 -9 3 -8 -3 -29 -13 -46
-16 -26 -19 -28 -25 -12 -5 11 -1 22 9 30 35 25 6 36 -76 30 -88 -7 -86 -8
-90 73 -4 100 -2 106 39 116 56 14 197 -6 221 -33z m-323 -20 c-10 -10 -19 5
-10 18 6 11 8 11 12 0 2 -7 1 -15 -2 -18z m14 -73 c0 -5 -7 -10 -16 -10 -8 0
-12 5 -9 10 3 6 10 10 16 10 5 0 9 -4 9 -10z m-30 -50 c0 -5 -5 -10 -11 -10
-5 0 -7 5 -4 10 3 6 8 10 11 10 2 0 4 -4 4 -10z m311 -68 c-28 -4 -40 6 -21
18 9 6 20 4 29 -3 12 -10 11 -13 -8 -15z m-261 -102 c0 -5 -2 -10 -4 -10 -3 0
-8 5 -11 10 -3 6 -1 10 4 10 6 0 11 -4 11 -10z m-10 -190 c0 -5 -7 -10 -16
-10 -8 0 -12 5 -9 10 3 6 10 10 16 10 5 0 9 -4 9 -10z"/>
<path d="M1659 1251 c-42 -3 -83 -12 -91 -18 -8 -7 -17 -10 -21 -7 -3 3 -15 0
-28 -6 -19 -11 -24 -10 -35 5 -11 15 -23 16 -84 10 -94 -9 -123 -40 -86 -91
13 -16 26 -19 97 -17 119 3 119 3 119 -120 0 -56 5 -129 10 -162 6 -33 11
-100 11 -150 1 -103 12 -130 60 -140 46 -10 79 27 79 89 0 39 -2 44 -17 39
-17 -6 -17 -5 -1 13 15 17 16 32 8 139 -5 66 -10 159 -10 207 l0 86 30 7 c16
4 33 13 38 20 4 9 16 12 30 9 12 -4 19 -10 16 -15 -3 -5 9 -9 26 -9 33 0 80
37 80 64 0 20 -28 46 -49 46 -10 0 -38 2 -62 4 -24 2 -78 1 -120 -3z m11 -17
c0 -13 -21 -44 -30 -44 -14 0 -12 24 2 38 13 13 28 16 28 6z m150 -38 c0 -3
-4 -8 -10 -11 -5 -3 -10 -1 -10 4 0 6 5 11 10 11 6 0 10 -2 10 -4z m-348 -48
c-7 -7 -12 -8 -12 -2 0 14 12 26 19 19 2 -3 -1 -11 -7 -17z m133 -98 c3 -5 1
-10 -4 -10 -6 0 -11 5 -11 10 0 6 2 10 4 10 3 0 8 -4 11 -10z m25 -90 c12 -8
11 -10 -7 -10 -13 0 -23 5 -23 10 0 13 11 13 30 0z m-20 -170 c0 -5 -4 -10 -9
-10 -6 0 -13 5 -16 10 -3 6 1 10 9 10 9 0 16 -4 16 -10z"/>
<path d="M824 1200 c-29 -11 -47 -61 -46 -123 2 -130 32 -518 42 -536 17 -32
47 -34 253 -21 228 14 248 23 216 94 -7 15 -20 26 -33 26 -12 0 -30 1 -41 2
-11 1 -75 -2 -142 -6 -112 -7 -122 -6 -126 11 -3 10 -9 82 -12 161 -4 78 -11
145 -16 148 -13 7 -11 42 2 46 12 4 -3 174 -17 188 -15 14 -58 20 -80 10z"/>
<path d="M628 1191 c12 -6 22 -17 22 -26 0 -8 5 -15 10 -15 6 0 10 -4 10 -10
0 -5 -12 -10 -26 -10 -14 0 -23 -4 -19 -10 3 -5 2 -10 -3 -10 -19 0 -21 14 -5
32 15 17 15 18 -1 18 -9 0 -14 5 -11 10 3 6 0 10 -9 10 -14 0 -33 -56 -23 -67
3 -3 23 -11 44 -18 l38 -13 -30 -7 c-16 -4 -35 -8 -41 -10 -7 -2 -8 -23 -4
-61 4 -33 5 -62 3 -66 -2 -4 2 -17 9 -28 8 -13 9 -23 3 -28 -5 -4 -11 -54 -12
-112 -2 -136 -2 -138 -38 -151 l-30 -12 30 -7 c17 -4 -10 -6 -65 -5 -53 1
-107 8 -122 15 -41 19 -68 86 -68 167 0 38 -4 74 -9 82 -6 9 -5 21 1 31 7 11
8 33 2 66 -8 41 -13 48 -29 46 -17 -3 -15 1 8 24 24 22 28 32 23 58 -11 53
-38 81 -84 84 -33 3 -43 -1 -52 -18 -14 -26 -10 -61 10 -77 13 -11 13 -12 -2
-13 -20 0 -23 -17 -8 -40 5 -8 5 -19 0 -25 -5 -5 -5 -79 0 -164 7 -146 9 -155
31 -172 13 -10 30 -19 37 -19 21 0 13 -20 -8 -20 -31 0 -24 -28 17 -67 63 -58
88 -68 183 -68 131 1 197 19 246 69 23 22 47 59 54 81 17 53 26 273 12 287 -6
6 -8 24 -5 39 8 44 -4 80 -25 72 -16 -6 -16 -5 1 14 20 23 23 53 5 53 -9 0 -8
4 2 11 11 8 12 12 3 16 -8 3 -11 14 -7 28 7 27 1 31 -51 39 -31 5 -35 4 -17
-3z m-404 -155 c9 3 16 1 16 -6 0 -17 -52 -8 -58 10 -4 12 -3 13 10 2 9 -7 23
-10 32 -6z m416 -6 c0 -5 -7 -10 -16 -10 -8 0 -12 5 -9 10 3 6 10 10 16 10 5
0 9 -4 9 -10z m-415 -100 c-3 -5 -18 -9 -33 -9 l-27 1 30 8 c17 4 31 8 33 9 2
0 0 -3 -3 -9z m-35 -97 c0 -13 -3 -13 -15 -3 -8 7 -15 16 -15 21 0 5 7 6 15 3
8 -4 15 -13 15 -21z m93 -270 c-7 -2 -19 -2 -25 0 -7 3 -2 5 12 5 14 0 19 -2
13 -5z m87 -2 c0 -4 -11 -6 -25 -3 -14 2 -25 6 -25 8 0 2 11 4 25 4 14 0 25
-4 25 -9z"/>
<path d="M4920 970 c0 -5 5 -10 10 -10 6 0 10 5 10 10 0 6 -4 10 -10 10 -5 0
-10 -4 -10 -10z"/>
<path d="M3950 924 c-14 -8 -43 -14 -65 -14 l-40 0 6 -92 c4 -51 10 -101 14
-111 11 -25 45 -31 148 -23 51 4 137 7 192 6 98 -1 152 9 167 33 15 24 8 57
-17 73 -26 17 -57 17 -272 -2 -94 -9 -103 -2 -96 75 3 32 2 60 -3 63 -5 3 -20
-1 -34 -8z m-39 -107 c-16 -16 -26 0 -10 19 9 11 15 12 17 4 2 -6 -1 -17 -7
-23z m89 -71 c0 -3 -4 -8 -10 -11 -5 -3 -10 -1 -10 4 0 6 5 11 10 11 6 0 10
-2 10 -4z m270 -26 c0 -5 -2 -10 -4 -10 -3 0 -8 5 -11 10 -3 6 -1 10 4 10 6 0
11 -4 11 -10z"/>
<path d="M7475 810 c-38 -3 -78 -10 -88 -14 -9 -5 -23 -4 -30 1 -12 10 -105 6
-562 -22 -132 -8 -319 -17 -416 -20 -96 -2 -234 -9 -305 -15 -71 -7 -156 -13
-189 -14 -33 -2 -80 -5 -105 -8 -25 -2 -54 0 -66 5 -13 5 -98 1 -230 -12 -225
-23 -221 -22 -236 -86 -3 -16 -6 -30 -5 -30 8 -3 471 21 697 35 80 6 156 10
170 10 19 0 29 8 39 33 l13 32 11 -33 10 -33 131 6 c72 4 154 9 181 11 28 2
115 5 195 8 203 8 442 27 462 37 23 12 31 11 22 -3 -5 -8 8 -10 52 -5 32 3
143 9 246 13 103 4 191 10 196 13 6 3 8 27 5 54 l-6 47 -61 -2 c-33 -1 -92 -4
-131 -8z m-315 -70 c0 -5 -5 -10 -11 -10 -5 0 -7 5 -4 10 3 6 8 10 11 10 2 0
4 -4 4 -10z m-1105 -40 c3 -5 -1 -10 -10 -10 -9 0 -13 5 -10 10 3 6 8 10 10
10 2 0 7 -4 10 -10z m-265 -10 c0 -5 -2 -10 -4 -10 -3 0 -8 5 -11 10 -3 6 -1
10 4 10 6 0 11 -4 11 -10z m675 -10 c3 -5 -1 -10 -9 -10 -9 0 -16 5 -16 10 0
6 4 10 9 10 6 0 13 -4 16 -10z m-1145 -50 c0 -5 -7 -10 -15 -10 -8 0 -15 5
-15 10 0 6 7 10 15 10 8 0 15 -4 15 -10z"/>
<path d="M5189 696 c-2 -2 -79 -6 -171 -10 -92 -3 -225 -11 -295 -17 -71 -6
-166 -12 -213 -13 -223 -6 -368 -15 -400 -25 -19 -6 -36 -7 -38 -3 -1 5 -30 5
-65 1 -34 -4 -64 -7 -67 -7 -3 1 -13 -2 -23 -7 -10 -4 -23 -2 -32 5 -10 8 -29
10 -54 6 -21 -3 -135 -10 -252 -16 -118 -6 -302 -15 -409 -20 -107 -6 -328
-17 -490 -25 -162 -7 -347 -20 -410 -26 -126 -14 -141 -23 -146 -82 l-2 -30
142 7 c77 4 209 12 291 17 83 5 171 9 198 9 26 -1 51 1 56 4 5 3 87 8 182 10
96 2 287 11 424 20 364 24 763 46 817 46 43 -1 48 2 64 32 l17 33 10 -30 c5
-16 11 -31 12 -32 1 -2 141 6 311 17 170 11 350 20 399 20 131 0 212 31 163
61 -7 4 -6 13 1 27 6 11 11 23 11 26 0 7 -24 8 -31 2z m-267 -88 c-7 -7 -12
-8 -12 -2 0 14 12 26 19 19 2 -3 -1 -11 -7 -17z m-982 -8 c0 -5 -5 -10 -11
-10 -5 0 -7 5 -4 10 3 6 8 10 11 10 2 0 4 -4 4 -10z m270 0 c0 -5 -7 -10 -16
-10 -8 0 -12 5 -9 10 3 6 10 10 16 10 5 0 9 -4 9 -10z m-2010 -129 c0 -5 -7
-11 -15 -15 -9 -3 -15 0 -15 9 0 8 7 15 15 15 8 0 15 -4 15 -9z"/>
<path d="M1790 511 c-96 -7 -195 -13 -220 -12 -25 1 -126 -3 -225 -9 -99 -5
-272 -14 -385 -20 -268 -13 -310 -18 -310 -36 0 -8 7 -17 15 -20 29 -11 16
-34 -18 -34 -42 0 -52 9 -29 27 12 10 14 16 4 19 -6 3 -10 10 -6 15 7 11 -46
11 -221 -1 -77 -5 -184 -12 -239 -14 -54 -3 -100 -7 -103 -10 -2 -2 -1 -25 2
-50 9 -54 -22 -51 285 -35 159 8 219 14 231 25 22 19 35 18 18 -2 -13 -15 -8
-16 51 -11 36 4 115 9 175 12 136 6 602 33 710 40 44 3 139 7 210 10 195 6
285 14 334 29 44 13 44 13 24 33 -17 17 -18 22 -5 41 l15 22 -69 -2 c-38 -2
-148 -9 -244 -17z m-215 -31 c3 -5 1 -10 -4 -10 -6 0 -11 5 -11 10 0 6 2 10 4
10 3 0 8 -4 11 -10z m-60 -60 c3 -5 -1 -10 -10 -10 -9 0 -13 5 -10 10 3 6 8
10 10 10 2 0 7 -4 10 -10z"/>
</g>
</svg>
